<svg width="19" height="18" viewBox="0 0 19 18" fill="none" xmlns="http://www.w3.org/2000/svg">
<path d="M17.9973 7.37504H9.67033V10.826H14.4623C14.0163 13.019 12.1493 14.279 9.67033 14.279C6.74733 14.279 4.39133 11.923 4.39133 8.99904C4.39133 6.07604 6.74733 3.72004 9.67033 3.72004C10.9293 3.72004 12.0673 4.16704 12.9603 4.89804L15.5603 2.29904C13.9763 0.91804 11.9453 0.06604 9.67033 0.06604C4.71633 0.06604 0.736328 4.04504 0.736328 9.00004C0.736328 13.955 4.71533 17.934 9.67033 17.934C14.1373 17.934 18.1993 14.685 18.1993 9.00004C18.1993 8.47204 18.1183 7.90304 17.9973 7.37504Z" fill="#DB4437"/>
</svg>
